<svg id="Camada_1" data-name="Camada 1" xmlns="http://www.w3.org/2000/svg" viewBox="0 0 980 986.8"><defs><style>.cls-1{fill:red;}</style></defs><path class="cls-1" d="M808.4,993.4H751.1a9.86,9.86,0,0,1-9.9-9.9V803H258.7V983.5a9.86,9.86,0,0,1-9.9,9.9H191.5a9.86,9.86,0,0,1-9.9-9.9V803H145.7a39.84,39.84,0,0,1-39.8-39.8V627.7a76.57,76.57,0,0,1,60.4-74.8V517.4H50.3a9.86,9.86,0,0,1-9.9-9.9V439.8H19.9a9.86,9.86,0,0,1-9.9-9.9v-38a9.86,9.86,0,0,1,9.9-9.9H166.4V209.6c0-112,91.1-203,203-203H630.5c112,0,203,91.1,203,203V382h12.4l-4.2-61.2a10.08,10.08,0,0,1,2.6-7.4,9.75,9.75,0,0,1,7.2-3.1h35.2l7.1-65.7a10.15,10.15,0,0,1,4.3-7.2l53.6-36.1a9.87,9.87,0,1,1,11,16.4L913,251.3l-6.3,59h33.1a9.76,9.76,0,0,1,9.8,10.5L945.4,382h34.7a9.86,9.86,0,0,1,9.9,9.9v38a9.86,9.86,0,0,1-9.9,9.9H959.5v67.7a9.86,9.86,0,0,1-9.9,9.9h-116v35.5A76.57,76.57,0,0,1,894,627.7V763.3a39.84,39.84,0,0,1-39.8,39.8H818.3V983.6A9.84,9.84,0,0,1,808.4,993.4ZM761,973.6h37.5V803H761Zm-559.6,0h37.5V803H201.4Zm607-190.4h45.8a20.06,20.06,0,0,0,20-20V734.3H125.8v28.9a20.06,20.06,0,0,0,20,20ZM125.8,714.5H874.2V627.6a56.72,56.72,0,0,0-56.7-56.7h-635a56.72,56.72,0,0,0-56.7,56.7v86.9Zm60.4-163.3H813.8V439.8H793.7a9.86,9.86,0,0,1-9.9-9.9v-38a9.86,9.86,0,0,1,9.9-9.9h20.1V209.6c0-101-82.2-183.2-183.2-183.2H369.4c-101,0-183.2,82.2-183.2,183.2V382h20.6a9.86,9.86,0,0,1,9.9,9.9v38a9.86,9.86,0,0,1-9.9,9.9H186.2ZM834,497.5H939.6V439.7H834Zm-773.7,0H165.9V439.7H60.3ZM803.9,420H970.1V401.8H803.9V420Zm-628.1,0h20.6V401.8H29.8V420Zm690-38h59.7l3.6-51.9H862.2Z" transform="translate(-10 -6.6)"/></svg>